<svg xmlns="http://www.w3.org/2000/svg" width="1024" height="1024" viewBox="0 0 1024 1024">
<path d="M 553.50 950.49 C535.35,952.09 492.58,952.33 476.00,950.92 C363.68,941.38 259.21,888.02 182.95,801.24 C131.25,742.42 95.04,668.41 80.57,592.00 C66.47,517.59 72.38,436.61 96.99,367.00 C130.75,271.52 189.84,195.60 273.06,140.79 C329.58,103.56 397.10,79.49 466.50,71.83 C485.13,69.77 545.68,70.07 563.50,72.30 C663.59,84.87 751.95,127.58 822.52,197.49 C850.15,224.86 873.10,254.73 893.21,289.50 C925.69,345.63 945.27,407.64 951.02,472.50 C952.67,491.17 952.41,531.30 950.51,551.50 C945.28,607.12 930.20,658.42 903.89,710.06 C840.86,833.80 725.41,920.62 591.00,945.36 C571.68,948.91 572.15,948.85 553.50,950.49 ZM 378.50 742.91 C381.80,743.39 443.23,743.70 515.00,743.58 C522.00,743.57 528.64,743.56 534.94,743.55 C636.46,743.40 648.74,743.38 660.04,740.01 C662.29,739.34 664.50,738.54 667.38,737.57 C703.51,725.44 729.89,694.87 738.64,655.00 C740.37,647.09 740.50,640.81 740.50,564.50 L 740.50 557.78 C740.50,491.66 740.50,479.09 737.25,467.42 C736.38,464.30 735.28,461.24 733.88,457.23 C721.41,421.53 693.49,395.77 656.50,385.85 C643.18,382.27 625.06,381.86 501.50,382.28 C395.73,382.65 381.67,382.88 375.03,384.34 C345.39,390.87 319.87,407.63 304.00,430.99 C297.80,440.13 290.51,456.07 287.30,467.50 L 284.50 477.50 L 284.50 650.50 L 287.22 660.50 C290.86,673.88 300.14,692.35 308.31,702.50 C325.78,724.20 351.35,738.92 378.50,742.91 ZM 502.00 315.50 L 502.00 365.00 L 521.00 365.00 L 521.00 316.28 L 527.00 312.58 C530.30,310.54 534.59,306.80 536.52,304.26 C548.62,288.42 542.53,264.63 524.24,256.25 C519.44,254.06 517.79,253.82 510.15,254.20 C504.55,254.48 500.31,255.26 498.14,256.40 C492.78,259.21 486.05,265.99 483.17,271.46 C480.87,275.83 480.52,277.70 480.52,285.50 C480.51,292.92 480.91,295.24 482.76,298.72 C486.20,305.17 490.43,309.46 496.49,312.62 ZM 419.24 569.67 C412.65,572.90 401.00,573.80 394.29,571.61 C384.24,568.33 376.46,561.62 371.29,551.79 C368.86,547.15 368.52,545.39 368.51,537.48 C368.50,529.29 368.80,527.84 371.79,521.78 C375.42,514.39 381.36,508.48 388.84,504.80 C395.68,501.43 409.36,501.03 417.20,503.97 C425.08,506.92 432.17,513.57 436.22,521.79 C439.20,527.84 439.50,529.30 439.49,537.48 C439.48,545.25 439.11,547.26 436.78,552.00 C433.30,559.08 426.15,566.29 419.24,569.67 ZM 632.52 571.54 C608.81,578.68 584.07,558.61 586.35,534.11 C587.50,521.88 595.58,510.43 606.78,505.18 C611.79,502.83 613.74,502.50 622.50,502.50 C631.99,502.50 632.82,502.67 638.83,505.93 C657.85,516.25 663.54,539.72 651.37,557.68 C647.30,563.68 639.44,569.46 632.52,571.54 ZM 758.58 632.24 C759.36,633.02 763.72,631.70 768.53,629.22 C778.11,624.28 785.58,614.66 788.46,603.54 C789.69,598.76 790.00,591.11 790.00,565.00 C790.00,530.41 789.52,525.86 784.89,516.79 C780.18,507.56 767.19,497.00 760.53,497.00 L 758.00 497.00 L 758.00 564.33 C758.00,601.37 758.26,631.93 758.58,632.24 ZM 260.78 631.01 L 265.50 632.80 L 265.76 564.74 C265.90,527.31 265.86,496.52 265.66,496.33 C265.47,496.14 263.44,496.64 261.15,497.45 C251.29,500.92 242.13,510.08 237.82,520.75 C235.57,526.32 235.49,527.59 235.17,561.50 C234.83,598.25 235.27,603.62 239.26,611.50 C243.79,620.44 251.60,627.52 260.78,631.01 ZM 525.66 653.52 C516.27,655.29 509.57,655.29 501.50,653.52 C489.26,650.84 478.96,645.77 471.20,638.62 C465.73,633.58 464.57,630.82 466.05,626.36 C468.45,619.06 476.36,617.68 482.05,623.56 C492.89,634.74 509.46,639.37 524.54,635.45 C531.70,633.58 537.37,630.38 544.07,624.43 C549.06,620.01 552.96,618.90 557.46,620.62 C560.10,621.64 562.25,626.84 561.56,630.55 C560.09,638.38 540.94,650.63 525.66,653.52 Z" fill="#335a69"/>
</svg>
